<svg xmlns="http://www.w3.org/2000/svg" width="500" viewBox="0 0 375 375" height="500" version="1.0"><defs><clipPath id="a"><path d="M121.273 101h133.5v143.844h-133.5Zm0 0"/></clipPath><clipPath id="b"><path d="M68 37.5h229.5v180H68Zm0 0"/></clipPath></defs><g clip-path="url(#a)"><path fill="#8ba6a9" d="M150.652 240.238h-27.047a2.267 2.267 0 0 0-2.265 2.266 2.262 2.262 0 0 0 2.265 2.266h111.547a2.262 2.262 0 0 0 2.266-2.266 2.267 2.267 0 0 0-2.266-2.266h-34.02c13.27-6.82 22.345-20.648 22.345-36.59v-33.652a2.27 2.27 0 0 0-2.266-2.266h-90.637a2.27 2.27 0 0 0-2.265 2.266v33.652c0 15.942 9.074 29.77 22.343 36.59Zm94.961 4.532h6.969a2.262 2.262 0 0 0 2.266-2.266 2.267 2.267 0 0 0-2.266-2.266h-6.969a2.267 2.267 0 0 0-2.265 2.266 2.262 2.262 0 0 0 2.265 2.266Zm-63.265-4.532h-12.91c-20.211 0-36.598-16.383-36.598-36.59v-31.386h86.105v31.386c0 20.207-16.386 36.59-36.597 36.59Zm47.02-61.34c.96-.585 3.73-1.468 6.878-1.68 3.04-.202 6.488.2 8.938 2.47 2.144 1.988 3.402 5.343 3.218 10.648-.257 7.344-2.039 11.555-4.82 13.832-1.977 1.621-4.402 2.191-6.879 2.355-2.82.184-5.723-.171-8.293-.433a2.269 2.269 0 0 0-2.484 2.027 2.268 2.268 0 0 0 2.027 2.48c5.91.602 13.32 1.317 18.5-2.921 3.488-2.856 6.156-7.98 6.477-17.18.246-7.098-1.801-11.473-4.664-14.129-3.395-3.148-8.11-3.949-12.325-3.668-4.109.27-7.691 1.567-8.945 2.344a2.256 2.256 0 0 0-.746 3.11 2.262 2.262 0 0 0 3.117.745Zm-22.626 4.696v20.914a2.265 2.265 0 1 0 4.531 0v-20.914a2.265 2.265 0 1 0-4.53 0Zm-60.629-60.012c-2.093 3.762-4.343 8.145-3.758 12.465.41 3.062 2.083 5.715 3.833 8.332 1.363 2.047 2.804 4.059 3.152 6.441.176 1.18-.188 2.34-.707 3.457-.656 1.422-1.582 2.766-2.414 3.989a2.266 2.266 0 0 0 3.746 2.55c2.101-3.093 4.414-6.894 3.863-10.656-.45-3.043-2.133-5.687-3.875-8.297-1.363-2.035-2.789-4.043-3.11-6.422-.456-3.379 1.59-6.718 3.231-9.656a2.271 2.271 0 0 0-.879-3.082 2.265 2.265 0 0 0-3.082.879Zm51.57 0c-2.09 3.762-4.34 8.145-3.757 12.465.414 3.062 2.086 5.715 3.832 8.332 1.367 2.047 2.808 4.059 3.156 6.441.176 1.18-.191 2.34-.707 3.457-.656 1.422-1.582 2.766-2.414 3.989a2.266 2.266 0 0 0 3.746 2.55c2.102-3.093 4.414-6.894 3.86-10.656-.446-3.043-2.126-5.687-3.876-8.297-1.359-2.035-2.785-4.043-3.105-6.422-.457-3.379 1.59-6.718 3.227-9.656a2.267 2.267 0 0 0-3.96-2.203Zm-27.25-20.914c-2.09 3.758-4.343 8.144-3.757 12.465.414 3.058 2.082 5.71 3.832 8.332 1.367 2.043 2.804 4.055 3.156 6.441.172 1.176-.191 2.34-.71 3.457-.653 1.418-1.579 2.766-2.415 3.989a2.274 2.274 0 0 0 .598 3.148 2.266 2.266 0 0 0 3.148-.602c2.102-3.09 4.414-6.89 3.863-10.652-.445-3.047-2.128-5.687-3.87-8.3-1.364-2.036-2.786-4.04-3.11-6.423-.457-3.375 1.59-6.714 3.227-9.652a2.27 2.27 0 0 0-.88-3.082 2.258 2.258 0 0 0-3.081.879Zm0 0" fill-rule="evenodd"/></g><g clip-path="url(#b)"><path fill="#8ba6a9" d="M182.742 266.988C119.492 266.988 68 215.496 68 152.242 68 88.992 119.492 37.5 182.742 37.5c63.25 0 114.746 51.492 114.746 114.742 0 63.254-51.496 114.746-114.746 114.746Zm0-227.793c-62.344 0-113.047 50.703-113.047 113.047 0 62.348 50.703 113.051 113.047 113.051 62.348 0 113.051-50.703 113.051-113.05 0-62.345-50.703-113.048-113.05-113.048Zm0 0"/></g><path d="M15.46 304.981h7.238v-.582c-1.387-.402-1.79-1.43-1.79-5.09v-11.078h5.317c5.094 0 6.344 1.07 6.926 3.082h.535v-6.793h-.535c-.582 1.969-1.832 3.04-6.926 2.996H20.91v-13.09h7.91c4.195 0 6.074 1.118 7.594 4.11l.488-.133-.402-4.691h-21.04v.582c1.34.402 1.79 1.43 1.79 5.09v19.925c0 3.66-.45 4.688-1.79 5.09ZM37.39 304.981h5.047v-.582c-1.52-.312-1.7-1.785-.535-4.687l2.633-6.524h12.597l2.727 6.567c1.43 3.351 1.785 4.242.402 4.644v.582h6.922v-.582c-.937-.402-2.008-1.293-3.394-4.644L52.8 273.356l-3.351 1.516.402.937c.36.715.402 1.297.09 2.102l-8.8 21.8c-1.384 3.395-2.5 4.286-3.75 4.688Zm7.414-12.465 5.942-14.695 6.12 14.695ZM82.9 305.426c6.212 0 11.126-3.394 11.126-12.37v-13.672c0-3.66.445-4.688 1.785-5.09v-.582h-5.54v.582c1.966.535 3.04 1.785 3.04 6.879v12.015c0 8.754-5.137 11.301-8.98 11.301-5.805 0-10.407-2.992-10.407-11.3v-13.805c0-3.66.446-4.688 1.785-5.09v-.582h-7.234v.582c1.383.402 1.785 1.43 1.785 5.09v14.074c0 8.976 6.254 11.968 12.64 11.968ZM115.863 305.426c4.511 0 9.695-2.32 12.285-5.94v-8.4h-5.852v.54c1.918.492 2.278 1.562 2.278 4.332l.043 4.554c-1.114 2.235-4.02 4.024-7.368 4.024-9.027 0-14.296-9.25-14.207-17.692.09-8.218 4.914-12.64 11.348-12.64 5.227 0 9.336 3.035 10.988 6.879l.446-.09-.18-5.27c-1.742-1.164-5.984-2.324-9.961-2.324-9.559 0-16.258 7.192-16.258 16.172 0 9.602 6.477 15.855 16.438 15.855ZM132.517 304.981h22.023l.36-5.941-.492-.09c-1.61 4.156-4.336 5.36-8.621 5.36h-5.809c-1.297 0-2.012-.716-2.012-2.009v-13.714h5.719c5.094 0 6.387 1.027 6.926 3.039h.535v-6.746h-.535c-.54 2.011-1.832 3.039-6.926 3.039h-5.719v-13.535h6.567c4.558 0 7.195 1.34 8.757 5.269l.493-.133-.493-5.808h-20.773v.582c1.34.402 1.79 1.43 1.79 5.09v19.925c0 3.66-.45 4.688-1.79 5.09ZM165.436 304.981h7.281v-.582c-1.387-.402-1.789-1.43-1.789-5.09v-24.883h2.102c4.02 0 5.761 1.07 7.28 4.29l.493-.09-.27-4.914H157.53l-.27 4.914.492.09c1.52-3.22 3.262-4.29 7.282-4.29h2.187v24.883c0 3.66-.402 4.688-1.785 5.09ZM210.099 305.426c5.004 0 9.246-1.25 11.347-2.41l.715-5.808-.492-.043c-1.742 4.824-5.496 7.37-10.32 7.37-9.293 0-14.383-8.042-14.34-16.44 0-9.114 5.496-13.848 12.597-13.848 5.317 0 9.559 2.726 11.301 6.789l.45-.086-.18-5.316c-1.742-1.118-6.211-2.235-10.051-2.235-10.496 0-17.867 7.059-17.867 16.574 0 9.739 6.566 15.453 16.84 15.453ZM242.255 305.426c7.504 0 15.813-4.914 15.813-15.945 0-10.945-8.266-16.125-15.813-16.125-9.472 0-15.902 6.79-15.902 15.945 0 11.079 8.308 16.125 15.902 16.125Zm-12.328-18.714c-.27-7.282 3.707-12.328 10.496-12.328 7.996 0 13.848 8.707 14.16 18.046.223 6.7-3.304 11.88-10.453 11.88-7.996 0-13.89-8.622-14.203-17.598ZM262.616 304.981h7.238v-.582c-1.387-.402-1.79-1.43-1.79-5.09v-11.078h5.317c5.094 0 6.344 1.07 6.926 3.082h.535v-6.793h-.535c-.582 1.969-1.832 3.04-6.926 2.996h-5.316v-13.09h7.91c4.195 0 6.074 1.118 7.594 4.11l.488-.133-.402-4.691h-21.04v.582c1.34.402 1.79 1.43 1.79 5.09v19.925c0 3.66-.45 4.688-1.79 5.09ZM287.581 304.981h7.239v-.582c-1.387-.402-1.79-1.43-1.79-5.09v-11.078h5.317c5.094 0 6.344 1.07 6.926 3.082h.535v-6.793h-.535c-.582 1.969-1.832 3.04-6.926 2.996h-5.316v-13.09h7.91c4.195 0 6.074 1.118 7.594 4.11l.488-.133-.402-4.691h-21.04v.582c1.34.402 1.79 1.43 1.79 5.09v19.925c0 3.66-.45 4.688-1.79 5.09ZM312.547 304.981h22.024l.359-5.941-.492-.09c-1.61 4.156-4.336 5.36-8.621 5.36h-5.809c-1.297 0-2.012-.716-2.012-2.009v-13.714h5.72c5.093 0 6.386 1.027 6.925 3.039h.535v-6.746h-.535c-.54 2.011-1.832 3.039-6.926 3.039h-5.719v-13.535h6.567c4.558 0 7.195 1.34 8.758 5.269l.492-.133-.492-5.808h-20.774v.582c1.34.402 1.79 1.43 1.79 5.09v19.925c0 3.66-.45 4.688-1.79 5.09ZM338.853 304.981h22.023l.36-5.941-.493-.09c-1.609 4.156-4.336 5.36-8.62 5.36h-5.81c-1.296 0-2.011-.716-2.011-2.009v-13.714h5.719c5.093 0 6.386 1.027 6.925 3.039h.536v-6.746h-.536c-.539 2.011-1.832 3.039-6.925 3.039h-5.719v-13.535h6.566c4.559 0 7.196 1.34 8.758 5.269l.492-.133-.492-5.808h-20.773v.582c1.34.402 1.789 1.43 1.789 5.09v19.925c0 3.66-.45 4.688-1.79 5.09Zm0 0" fill="#8ba6a9"/></svg>