<svg xmlns="http://www.w3.org/2000/svg" xmlns:xlink="http://www.w3.org/1999/xlink" width="500" zoomAndPan="magnify" viewBox="0 0 375 374.999991" height="500" preserveAspectRatio="xMidYMid meet" version="1.0"><defs><g/><clipPath id="9a431bfe9e"><path d="M 121.273438 101 L 254.773438 101 L 254.773438 244.84375 L 121.273438 244.84375 Z M 121.273438 101 " clip-rule="nonzero"/></clipPath><clipPath id="79e111a6fa"><path d="M 68 37.5 L 297.5 37.5 L 297.5 217.5 L 68 217.5 Z M 68 37.5 " clip-rule="nonzero"/></clipPath></defs><g clip-path="url(#9a431bfe9e)"><path fill="#8ba6a9" d="M 150.652344 240.238281 L 123.605469 240.238281 C 122.351562 240.238281 121.339844 241.257812 121.339844 242.503906 C 121.339844 243.757812 122.351562 244.769531 123.605469 244.769531 L 235.152344 244.769531 C 236.40625 244.769531 237.417969 243.757812 237.417969 242.503906 C 237.417969 241.257812 236.40625 240.238281 235.152344 240.238281 L 201.132812 240.238281 C 214.402344 233.417969 223.476562 219.589844 223.476562 203.648438 L 223.476562 169.996094 C 223.476562 168.75 222.460938 167.730469 221.210938 167.730469 L 130.574219 167.730469 C 129.324219 167.730469 128.308594 168.75 128.308594 169.996094 L 128.308594 203.648438 C 128.308594 219.589844 137.382812 233.417969 150.652344 240.238281 Z M 245.613281 244.769531 L 252.582031 244.769531 C 253.835938 244.769531 254.847656 243.757812 254.847656 242.503906 C 254.847656 241.257812 253.835938 240.238281 252.582031 240.238281 L 245.613281 240.238281 C 244.359375 240.238281 243.347656 241.257812 243.347656 242.503906 C 243.347656 243.757812 244.359375 244.769531 245.613281 244.769531 Z M 182.347656 240.238281 L 169.4375 240.238281 C 149.226562 240.238281 132.839844 223.855469 132.839844 203.648438 L 132.839844 172.261719 L 218.945312 172.261719 C 218.945312 172.261719 218.945312 203.648438 218.945312 203.648438 C 218.945312 223.855469 202.558594 240.238281 182.347656 240.238281 Z M 229.367188 178.898438 C 230.328125 178.3125 233.097656 177.429688 236.246094 177.21875 C 239.285156 177.015625 242.734375 177.417969 245.183594 179.6875 C 247.328125 181.675781 248.585938 185.03125 248.402344 190.335938 C 248.144531 197.679688 246.363281 201.890625 243.582031 204.167969 C 241.605469 205.789062 239.179688 206.359375 236.703125 206.523438 C 233.882812 206.707031 230.980469 206.351562 228.410156 206.089844 C 227.167969 205.960938 226.054688 206.871094 225.925781 208.117188 C 225.800781 209.355469 226.707031 210.472656 227.953125 210.597656 C 233.863281 211.199219 241.273438 211.914062 246.453125 207.675781 C 249.941406 204.820312 252.609375 199.695312 252.929688 190.496094 C 253.175781 183.398438 251.128906 179.023438 248.265625 176.367188 C 244.871094 173.21875 240.15625 172.417969 235.941406 172.699219 C 231.832031 172.96875 228.25 174.265625 226.996094 175.042969 C 225.929688 175.691406 225.59375 177.089844 226.25 178.152344 C 226.90625 179.222656 228.300781 179.554688 229.367188 178.898438 Z M 206.742188 183.59375 L 206.742188 204.507812 C 206.742188 205.757812 207.757812 206.773438 209.007812 206.773438 C 210.261719 206.773438 211.273438 205.757812 211.273438 204.507812 L 211.273438 183.59375 C 211.273438 182.34375 210.261719 181.328125 209.007812 181.328125 C 207.757812 181.328125 206.742188 182.34375 206.742188 183.59375 Z M 146.113281 123.582031 C 144.019531 127.34375 141.769531 131.726562 142.355469 136.046875 C 142.765625 139.109375 144.4375 141.761719 146.1875 144.378906 C 147.550781 146.425781 148.992188 148.4375 149.339844 150.820312 C 149.515625 152 149.152344 153.160156 148.632812 154.277344 C 147.976562 155.699219 147.050781 157.042969 146.21875 158.265625 C 145.511719 159.300781 145.78125 160.710938 146.816406 161.414062 C 147.851562 162.117188 149.261719 161.851562 149.964844 160.816406 C 152.066406 157.722656 154.378906 153.921875 153.828125 150.160156 C 153.378906 147.117188 151.695312 144.472656 149.953125 141.863281 C 148.589844 139.828125 147.164062 137.820312 146.84375 135.441406 C 146.386719 132.0625 148.433594 128.722656 150.074219 125.785156 C 150.679688 124.691406 150.285156 123.308594 149.195312 122.703125 C 148.101562 122.09375 146.71875 122.488281 146.113281 123.582031 Z M 197.683594 123.582031 C 195.59375 127.34375 193.34375 131.726562 193.925781 136.046875 C 194.339844 139.109375 196.011719 141.761719 197.757812 144.378906 C 199.125 146.425781 200.566406 148.4375 200.914062 150.820312 C 201.089844 152 200.722656 153.160156 200.207031 154.277344 C 199.550781 155.699219 198.625 157.042969 197.792969 158.265625 C 197.085938 159.300781 197.355469 160.710938 198.390625 161.414062 C 199.425781 162.117188 200.835938 161.851562 201.539062 160.816406 C 203.640625 157.722656 205.953125 153.921875 205.398438 150.160156 C 204.953125 147.117188 203.273438 144.472656 201.523438 141.863281 C 200.164062 139.828125 198.738281 137.820312 198.417969 135.441406 C 197.960938 132.0625 200.007812 128.722656 201.644531 125.785156 C 202.253906 124.691406 201.859375 123.308594 200.765625 122.703125 C 199.675781 122.09375 198.292969 122.488281 197.683594 123.582031 Z M 170.433594 102.667969 C 168.34375 106.425781 166.089844 110.8125 166.675781 115.132812 C 167.089844 118.191406 168.757812 120.84375 170.507812 123.464844 C 171.875 125.507812 173.3125 127.519531 173.664062 129.90625 C 173.835938 131.082031 173.472656 132.246094 172.953125 133.363281 C 172.300781 134.78125 171.375 136.128906 170.539062 137.351562 C 169.839844 138.386719 170.105469 139.792969 171.136719 140.5 C 172.171875 141.203125 173.585938 140.933594 174.285156 139.898438 C 176.386719 136.808594 178.699219 133.007812 178.148438 129.246094 C 177.703125 126.199219 176.019531 123.558594 174.277344 120.945312 C 172.914062 118.910156 171.492188 116.90625 171.167969 114.523438 C 170.710938 111.148438 172.757812 107.808594 174.394531 104.871094 C 175 103.773438 174.605469 102.394531 173.515625 101.789062 C 172.421875 101.175781 171.039062 101.570312 170.433594 102.667969 Z M 170.433594 102.667969 " fill-opacity="1" fill-rule="evenodd"/></g><g clip-path="url(#79e111a6fa)"><path fill="#8ba6a9" d="M 182.742188 266.988281 C 119.492188 266.988281 68 215.496094 68 152.242188 C 68 88.992188 119.492188 37.5 182.742188 37.5 C 245.992188 37.5 297.488281 88.992188 297.488281 152.242188 C 297.488281 215.496094 245.992188 266.988281 182.742188 266.988281 Z M 182.742188 39.195312 C 120.398438 39.195312 69.695312 89.898438 69.695312 152.242188 C 69.695312 214.589844 120.398438 265.292969 182.742188 265.292969 C 245.089844 265.292969 295.792969 214.589844 295.792969 152.242188 C 295.792969 89.898438 245.089844 39.195312 182.742188 39.195312 Z M 182.742188 39.195312 " fill-opacity="1" fill-rule="nonzero"/></g><g fill="#8ba6a9" fill-opacity="1"><g transform="translate(13.182164, 304.981171)"><g><path d="M 2.277344 0 L 9.515625 0 L 9.515625 -0.582031 C 8.128906 -0.984375 7.726562 -2.011719 7.726562 -5.671875 L 7.726562 -16.75 L 13.042969 -16.75 C 18.136719 -16.75 19.386719 -15.679688 19.96875 -13.667969 L 20.503906 -13.667969 L 20.503906 -20.460938 L 19.96875 -20.460938 C 19.386719 -18.492188 18.136719 -17.421875 13.042969 -17.464844 L 7.726562 -17.464844 L 7.726562 -30.554688 L 15.636719 -30.554688 C 19.832031 -30.554688 21.710938 -29.4375 23.230469 -26.445312 L 23.71875 -26.578125 L 23.316406 -31.269531 L 2.277344 -31.269531 L 2.277344 -30.6875 C 3.617188 -30.285156 4.066406 -29.257812 4.066406 -25.597656 L 4.066406 -5.671875 C 4.066406 -2.011719 3.617188 -0.984375 2.277344 -0.582031 Z M 2.277344 0 "/></g></g></g><g fill="#8ba6a9" fill-opacity="1"><g transform="translate(38.147892, 304.981171)"><g><path d="M -0.757812 0 L 4.289062 0 L 4.289062 -0.582031 C 2.769531 -0.894531 2.589844 -2.367188 3.753906 -5.269531 L 6.386719 -11.792969 L 18.984375 -11.792969 L 21.710938 -5.226562 C 23.140625 -1.875 23.496094 -0.984375 22.113281 -0.582031 L 22.113281 0 L 29.035156 0 L 29.035156 -0.582031 C 28.097656 -0.984375 27.027344 -1.875 25.640625 -5.226562 L 14.652344 -31.625 L 11.300781 -30.109375 L 11.703125 -29.171875 C 12.0625 -28.457031 12.105469 -27.875 11.792969 -27.070312 L 2.992188 -5.269531 C 1.609375 -1.875 0.492188 -0.984375 -0.757812 -0.582031 Z M 6.65625 -12.464844 L 12.597656 -27.160156 L 18.71875 -12.464844 Z M 6.65625 -12.464844 "/></g></g></g><g fill="#8ba6a9" fill-opacity="1"><g transform="translate(66.775854, 304.981171)"><g><path d="M 16.125 0.445312 C 22.335938 0.445312 27.25 -2.949219 27.25 -11.925781 L 27.25 -25.597656 C 27.25 -29.257812 27.695312 -30.285156 29.035156 -30.6875 L 29.035156 -31.269531 L 23.496094 -31.269531 L 23.496094 -30.6875 C 25.460938 -30.152344 26.535156 -28.902344 26.535156 -23.808594 L 26.535156 -11.792969 C 26.535156 -3.039062 21.398438 -0.492188 17.554688 -0.492188 C 11.75 -0.492188 7.148438 -3.484375 7.148438 -11.792969 L 7.148438 -25.597656 C 7.148438 -29.257812 7.59375 -30.285156 8.933594 -30.6875 L 8.933594 -31.269531 L 1.699219 -31.269531 L 1.699219 -30.6875 C 3.082031 -30.285156 3.484375 -29.257812 3.484375 -25.597656 L 3.484375 -11.523438 C 3.484375 -2.546875 9.738281 0.445312 16.125 0.445312 Z M 16.125 0.445312 "/></g></g></g><g fill="#8ba6a9" fill-opacity="1"><g transform="translate(97.100938, 304.981171)"><g><path d="M 18.761719 0.445312 C 23.273438 0.445312 28.457031 -1.875 31.046875 -5.496094 L 31.046875 -13.894531 L 25.195312 -13.894531 L 25.195312 -13.355469 C 27.113281 -12.863281 27.472656 -11.792969 27.472656 -9.023438 L 27.515625 -4.46875 C 26.402344 -2.234375 23.496094 -0.445312 20.148438 -0.445312 C 11.121094 -0.445312 5.851562 -9.695312 5.941406 -18.136719 C 6.03125 -26.355469 10.855469 -30.777344 17.289062 -30.777344 C 22.515625 -30.777344 26.625 -27.742188 28.277344 -23.898438 L 28.722656 -23.988281 L 28.542969 -29.257812 C 26.800781 -30.421875 22.558594 -31.582031 18.582031 -31.582031 C 9.023438 -31.582031 2.324219 -24.390625 2.324219 -15.410156 C 2.324219 -5.808594 8.800781 0.445312 18.761719 0.445312 Z M 18.761719 0.445312 "/></g></g></g><g fill="#8ba6a9" fill-opacity="1"><g transform="translate(130.239704, 304.981171)"><g><path d="M 2.277344 0 L 24.300781 0 L 24.660156 -5.941406 L 24.167969 -6.03125 C 22.558594 -1.875 19.832031 -0.671875 15.546875 -0.671875 L 9.738281 -0.671875 C 8.441406 -0.671875 7.726562 -1.386719 7.726562 -2.679688 L 7.726562 -16.394531 L 13.445312 -16.394531 C 18.539062 -16.394531 19.832031 -15.367188 20.371094 -13.355469 L 20.90625 -13.355469 L 20.90625 -20.101562 L 20.371094 -20.101562 C 19.832031 -18.089844 18.539062 -17.0625 13.445312 -17.0625 L 7.726562 -17.0625 L 7.726562 -30.597656 L 14.292969 -30.597656 C 18.851562 -30.597656 21.488281 -29.257812 23.050781 -25.328125 L 23.542969 -25.460938 L 23.050781 -31.269531 L 2.277344 -31.269531 L 2.277344 -30.6875 C 3.617188 -30.285156 4.066406 -29.257812 4.066406 -25.597656 L 4.066406 -5.671875 C 4.066406 -2.011719 3.617188 -0.984375 2.277344 -0.582031 Z M 2.277344 0 "/></g></g></g><g fill="#8ba6a9" fill-opacity="1"><g transform="translate(156.545266, 304.981171)"><g><path d="M 8.890625 0 L 16.171875 0 L 16.171875 -0.582031 C 14.785156 -0.984375 14.382812 -2.011719 14.382812 -5.671875 L 14.382812 -30.554688 L 16.484375 -30.554688 C 20.503906 -30.554688 22.246094 -29.484375 23.765625 -26.265625 L 24.257812 -26.355469 L 23.988281 -31.269531 L 0.984375 -31.269531 L 0.714844 -26.355469 L 1.207031 -26.265625 C 2.726562 -29.484375 4.46875 -30.554688 8.488281 -30.554688 L 10.675781 -30.554688 L 10.675781 -5.671875 C 10.675781 -2.011719 10.273438 -0.984375 8.890625 -0.582031 Z M 8.890625 0 "/></g></g></g><g fill="#8ba6a9" fill-opacity="1"><g transform="translate(181.55566, 304.981171)"><g/></g></g><g fill="#8ba6a9" fill-opacity="1"><g transform="translate(190.934554, 304.981171)"><g><path d="M 19.164062 0.445312 C 24.167969 0.445312 28.410156 -0.804688 30.511719 -1.964844 L 31.226562 -7.773438 L 30.734375 -7.816406 C 28.992188 -2.992188 25.238281 -0.445312 20.414062 -0.445312 C 11.121094 -0.445312 6.03125 -8.488281 6.074219 -16.886719 C 6.074219 -26 11.570312 -30.734375 18.671875 -30.734375 C 23.988281 -30.734375 28.230469 -28.007812 29.972656 -23.945312 L 30.421875 -24.03125 L 30.242188 -29.347656 C 28.5 -30.464844 24.03125 -31.582031 20.191406 -31.582031 C 9.695312 -31.582031 2.324219 -24.523438 2.324219 -15.007812 C 2.324219 -5.269531 8.890625 0.445312 19.164062 0.445312 Z M 19.164062 0.445312 "/></g></g></g><g fill="#8ba6a9" fill-opacity="1"><g transform="translate(224.028655, 304.981171)"><g><path d="M 18.226562 0.445312 C 25.730469 0.445312 34.039062 -4.46875 34.039062 -15.5 C 34.039062 -26.445312 25.773438 -31.625 18.226562 -31.625 C 8.753906 -31.625 2.324219 -24.835938 2.324219 -15.679688 C 2.324219 -4.601562 10.632812 0.445312 18.226562 0.445312 Z M 5.898438 -18.269531 C 5.628906 -25.550781 9.605469 -30.597656 16.394531 -30.597656 C 24.390625 -30.597656 30.242188 -21.890625 30.554688 -12.550781 C 30.777344 -5.851562 27.25 -0.671875 20.101562 -0.671875 C 12.105469 -0.671875 6.210938 -9.292969 5.898438 -18.269531 Z M 5.898438 -18.269531 "/></g></g></g><g fill="#8ba6a9" fill-opacity="1"><g transform="translate(260.338372, 304.981171)"><g><path d="M 2.277344 0 L 9.515625 0 L 9.515625 -0.582031 C 8.128906 -0.984375 7.726562 -2.011719 7.726562 -5.671875 L 7.726562 -16.75 L 13.042969 -16.75 C 18.136719 -16.75 19.386719 -15.679688 19.96875 -13.667969 L 20.503906 -13.667969 L 20.503906 -20.460938 L 19.96875 -20.460938 C 19.386719 -18.492188 18.136719 -17.421875 13.042969 -17.464844 L 7.726562 -17.464844 L 7.726562 -30.554688 L 15.636719 -30.554688 C 19.832031 -30.554688 21.710938 -29.4375 23.230469 -26.445312 L 23.71875 -26.578125 L 23.316406 -31.269531 L 2.277344 -31.269531 L 2.277344 -30.6875 C 3.617188 -30.285156 4.066406 -29.257812 4.066406 -25.597656 L 4.066406 -5.671875 C 4.066406 -2.011719 3.617188 -0.984375 2.277344 -0.582031 Z M 2.277344 0 "/></g></g></g><g fill="#8ba6a9" fill-opacity="1"><g transform="translate(285.304101, 304.981171)"><g><path d="M 2.277344 0 L 9.515625 0 L 9.515625 -0.582031 C 8.128906 -0.984375 7.726562 -2.011719 7.726562 -5.671875 L 7.726562 -16.75 L 13.042969 -16.75 C 18.136719 -16.75 19.386719 -15.679688 19.96875 -13.667969 L 20.503906 -13.667969 L 20.503906 -20.460938 L 19.96875 -20.460938 C 19.386719 -18.492188 18.136719 -17.421875 13.042969 -17.464844 L 7.726562 -17.464844 L 7.726562 -30.554688 L 15.636719 -30.554688 C 19.832031 -30.554688 21.710938 -29.4375 23.230469 -26.445312 L 23.71875 -26.578125 L 23.316406 -31.269531 L 2.277344 -31.269531 L 2.277344 -30.6875 C 3.617188 -30.285156 4.066406 -29.257812 4.066406 -25.597656 L 4.066406 -5.671875 C 4.066406 -2.011719 3.617188 -0.984375 2.277344 -0.582031 Z M 2.277344 0 "/></g></g></g><g fill="#8ba6a9" fill-opacity="1"><g transform="translate(310.269829, 304.981171)"><g><path d="M 2.277344 0 L 24.300781 0 L 24.660156 -5.941406 L 24.167969 -6.03125 C 22.558594 -1.875 19.832031 -0.671875 15.546875 -0.671875 L 9.738281 -0.671875 C 8.441406 -0.671875 7.726562 -1.386719 7.726562 -2.679688 L 7.726562 -16.394531 L 13.445312 -16.394531 C 18.539062 -16.394531 19.832031 -15.367188 20.371094 -13.355469 L 20.90625 -13.355469 L 20.90625 -20.101562 L 20.371094 -20.101562 C 19.832031 -18.089844 18.539062 -17.0625 13.445312 -17.0625 L 7.726562 -17.0625 L 7.726562 -30.597656 L 14.292969 -30.597656 C 18.851562 -30.597656 21.488281 -29.257812 23.050781 -25.328125 L 23.542969 -25.460938 L 23.050781 -31.269531 L 2.277344 -31.269531 L 2.277344 -30.6875 C 3.617188 -30.285156 4.066406 -29.257812 4.066406 -25.597656 L 4.066406 -5.671875 C 4.066406 -2.011719 3.617188 -0.984375 2.277344 -0.582031 Z M 2.277344 0 "/></g></g></g><g fill="#8ba6a9" fill-opacity="1"><g transform="translate(336.575392, 304.981171)"><g><path d="M 2.277344 0 L 24.300781 0 L 24.660156 -5.941406 L 24.167969 -6.03125 C 22.558594 -1.875 19.832031 -0.671875 15.546875 -0.671875 L 9.738281 -0.671875 C 8.441406 -0.671875 7.726562 -1.386719 7.726562 -2.679688 L 7.726562 -16.394531 L 13.445312 -16.394531 C 18.539062 -16.394531 19.832031 -15.367188 20.371094 -13.355469 L 20.90625 -13.355469 L 20.90625 -20.101562 L 20.371094 -20.101562 C 19.832031 -18.089844 18.539062 -17.0625 13.445312 -17.0625 L 7.726562 -17.0625 L 7.726562 -30.597656 L 14.292969 -30.597656 C 18.851562 -30.597656 21.488281 -29.257812 23.050781 -25.328125 L 23.542969 -25.460938 L 23.050781 -31.269531 L 2.277344 -31.269531 L 2.277344 -30.6875 C 3.617188 -30.285156 4.066406 -29.257812 4.066406 -25.597656 L 4.066406 -5.671875 C 4.066406 -2.011719 3.617188 -0.984375 2.277344 -0.582031 Z M 2.277344 0 "/></g></g></g></svg>